<svg xmlns="http://www.w3.org/2000/svg" viewBox="0 0 100 100">
  <defs>
    <linearGradient id="grad2" x1="0%" y1="0%" x2="0%" y2="100%">
      <stop offset="0%" style="stop-color:#10B981;stop-opacity:0.2" />
      <stop offset="100%" style="stop-color:#10B981;stop-opacity:0.8" />
    </linearGradient>
  </defs>
  
  <!-- Brain Shape -->
  <path d="M25,50 C20,45 20,30 35,20 C45,10 65,10 75,25 C85,30 90,45 85,60 C80,75 70,85 50,85 C40,85 30,80 25,70 C15,75 5,65 10,50 Z" 
        fill="url(#grad2)" stroke="#10B981" stroke-width="2" />
        
  <!-- Scan Lines / Diagnosis Grid -->
  <line x1="20" y1="30" x2="80" y2="30" stroke="#10B981" stroke-width="1" opacity="0.3" />
  <line x1="15" y1="40" x2="85" y2="40" stroke="#10B981" stroke-width="1" opacity="0.3" />
  <line x1="15" y1="50" x2="85" y2="50" stroke="#10B981" stroke-width="1" opacity="0.5" />
  <line x1="20" y1="60" x2="80" y2="60" stroke="#10B981" stroke-width="1" opacity="0.3" />
  <line x1="30" y1="70" x2="70" y2="70" stroke="#10B981" stroke-width="1" opacity="0.3" />
  
  <!-- Target/Crosshair -->
  <circle cx="50" cy="50" r="15" fill="none" stroke="#FFFFFF" stroke-width="2" stroke-dasharray="4,2" />
  <line x1="50" y1="30" x2="50" y2="70" stroke="#FFFFFF" stroke-width="1" opacity="0.5" />
  <line x1="30" y1="50" x2="70" y2="50" stroke="#FFFFFF" stroke-width="1" opacity="0.5" />
</svg>